<svg xmlns="http://www.w3.org/2000/svg" viewBox="0 0 4636.97 1682.64"><defs><style>.cls-1{fill:#243027;}.cls-1,.cls-3,.cls-6{stroke:#db902e;}.cls-1,.cls-2,.cls-3,.cls-4,.cls-5,.cls-6,.cls-7{stroke-miterlimit:10;}.cls-2,.cls-3,.cls-6{fill:none;}.cls-2,.cls-7{stroke:#e3a43e;}.cls-2,.cls-3{stroke-width:50px;}.cls-4{fill:#db902e;stroke:#88373f;}.cls-5{fill:#dc9031;stroke:#243027;}.cls-6{stroke-width:30px;}.cls-7{font-size:265px;fill:#202d23;stroke-width:3px;font-family:Dacquoise-Regular, Dacquoise;}.cls-8{letter-spacing:0.01em;}.cls-9{letter-spacing:-0.07em;}.cls-10{letter-spacing:-0.07em;}.cls-11{letter-spacing:-0.05em;}.cls-12{letter-spacing:-0.03em;}</style></defs><title>bittersweetboutiquelogo</title><g id="background"><circle class="cls-1" cx="842.01" cy="850.06" r="825.06"/></g><g id="trim"><circle class="cls-2" cx="841.32" cy="841.32" r="816.32"/></g><g id="frame"><polyline class="cls-3" points="221.36 886.54 221.36 563.28 310.8 563.28 310.8 544.35 310.8 428.48 416.5 428.48 416.5 324.82 552.32 324.82 552.32 237.41 852.05 237.41"/><polyline class="cls-3" points="1460.72 886.54 1460.72 563.28 1371.28 563.28 1371.28 544.35 1371.28 428.48 1265.58 428.48 1265.58 324.82 1129.76 324.82 1129.76 237.41 830.03 237.41"/><polyline class="cls-3" points="222.13 787.85 222.13 1111.11 311.57 1111.11 311.57 1130.04 311.57 1245.91 417.27 1245.91 417.27 1349.57 553.09 1349.57 553.09 1436.98 852.82 1436.98"/><polyline class="cls-3" points="1461.48 787.85 1461.48 1111.11 1372.05 1111.11 1372.05 1130.04 1372.05 1245.91 1266.35 1245.91 1266.35 1349.57 1130.53 1349.57 1130.53 1436.98 830.79 1436.98"/><circle class="cls-4" cx="840.9" cy="133.47" r="51.62"/><circle class="cls-4" cx="854.26" cy="1546.83" r="54.21"/></g><g id="coffee_cup" data-name="coffee cup"><path class="cls-5" d="M757.57,1257h693.21s-40.78,51-44.18,73.06,8.9,170.75-6.79,201.34c-33.82,48.7-78.47,58.08-100.25,84.1l-69.66,83.25h-243c-5.44-39.62-54.37-80.42-98.54-96.84S813,1532.74,817,1488.1c0,0,5.09-137-5.1-159.71S757.57,1257,757.57,1257Z" transform="translate(-261.56 -430.38)"/><path class="cls-5" d="M1162.24,1158.75c109-161.4-75.39-265.59,14.64-354.17C1139,824.82,1323.34,1067.7,1162.24,1158.75Z" transform="translate(-261.56 -430.38)"/><path class="cls-5" d="M1086.38,1162.59c109-161.4-75.39-265.59,14.64-354.16C1063.14,828.66,1247.48,1071.54,1086.38,1162.59Z" transform="translate(-261.56 -430.38)"/><path class="cls-5" d="M1012.9,1162.71c109-161.39-75.39-265.59,14.64-354.16C989.66,828.78,1174,1071.66,1012.9,1162.71Z" transform="translate(-261.56 -430.38)"/><g id="Layer_6" data-name="Layer 6"><path class="cls-6" d="M1372,1379.72s60-45.09,113.33-45.09,41,62.51,41,113.76-106.59,102.49-106.59,102.49l-124.44,40" transform="translate(-261.56 -430.38)"/></g></g><g id="title_text" data-name="title text"><text class="cls-7" transform="translate(1806.1 932.77)">Bi<tspan class="cls-8" x="214.91" y="0">t</tspan><tspan x="382.92" y="0">te</tspan><tspan class="cls-9" x="692.17" y="0">r</tspan><tspan class="cls-10" x="833.68" y="0">-</tspan><tspan class="cls-11" x="917.68" y="0">S</tspan><tspan x="1034.28" y="0">we</tspan><tspan class="cls-12" x="1406.34" y="0">e</tspan><tspan x="1540.43" y="0">t Boutique</tspan></text></g></svg>